{"title":"Paranorman[2012]BRrip[Ac3-5.1]-=[CaLvIn]=-","uid":7918475,"size":748610959,"categoryP":"video","categoryS":"movies","magnet":"?xt=urn:btih:85f50f6caa47dfc97f5ff33d97e0d950a01a040a&amp;dn=Paranorman%5B2012%5DBRrip%5BAc3-5.1%5D-%3D%5BCaLvIn%5D%3D-&amp;tr=udp%3A%2F%2Ftracker.openbittorrent.com%3A80&amp;tr=udp%3A%2F%2Fopen.demonii.com%3A1337&amp;tr=udp%3A%2F%2Ftracker.coppersurfer.tk%3A6969&amp;tr=udp%3A%2F%2Fexodus.desync.com%3A6969","seeders":3,"leechers":0,"uploader":"rhythmtheguru","files":15,"time":1355420272,"description":"General\n\nComplete name                    : Paranorman[2012]BRrip[Ac3-5.1]-=[CaLvIn]=-\nFormat                           : AVI\nFormat/Info                      : Audio Video Interleave\nFile size                        : 701 MiB\nDuration                         : 1h 32mn\nOverall bit rate                 : 1 062 Kbps\n\nVideo\n\nID                               : 0\nFormat                           : MPEG-4 Visual\nFormat profile                   : Advanced Simple@L5\nFormat settings, BVOP            : 2\nFormat settings, QPel            : No\nFormat settings, GMC             : No warppoints\nFormat settings, Matrix          : Default (H.263)\nCodec ID                         : XVID\nCodec ID/Hint                    : XviD\nDuration                         : 1h 32mn\nBit rate                         : 796 Kbps\nWidth                            : 720 pixels\nHeight                           : 304 pixels\nDisplay aspect ratio             : 16:9\nFrame rate                       : 23.976 fps\nColor space                      : YUV\nChroma subsampling               : 4:2:0\nBit depth                        : 8 bits\nScan type                        : Progressive\nCompression mode                 : Lossy\nBits/(Pixel*Frame)               : 0.152\nStream size                      : 525 MiB (75%)\nWriting library                  : XviD 1.2.1 (UTC 2008-12-04)\n\nAudio\n\nID                               : 1\nFormat                           : AC-3\nFormat/Info                      : Audio Coding 3\nMode extension                   : CM (complete main)\nCodec ID                         : 2000\nDuration                         : 1h 32mn\nBit rate mode                    : Constant\nBit rate                         : 256 Kbps\nChannel(s)                       : 6 channels\nChannel positions                : Front: L C R, Side: L R, LFE\nSampling rate                    : 48.0 KHz\nBit depth                        : 16 bits\nCompression mode                 : Lossy\nStream size                      : 169 MiB (24%)\nAlignment                        : Split accross interleaves\nInterleave, duration             : 42 ms (1.00 video frame)\nInterleave, preload duration     : 500 ms\n\nScreens\n &lt;a href=&quot;\nhttp://img10.imageshack.us/img10/2082/52887621.png&quot; rel=&quot;nofollow&quot; target=&quot;_NEW&quot;&gt;\nhttp://img10.imageshack.us/img10/2082/52887621.png&lt;/a&gt; &lt;a href=&quot;\nhttp://img834.imageshack.us/img834/9906/57831888.png&quot; rel=&quot;nofollow&quot; target=&quot;_NEW&quot;&gt;\nhttp://img834.imageshack.us/img834/9906/57831888.png&lt;/a&gt; &lt;a href=&quot;\nhttp://img29.imageshack.us/img29/3349/24406464.png&quot; rel=&quot;nofollow&quot; target=&quot;_NEW&quot;&gt;\nhttp://img29.imageshack.us/img29/3349/24406464.png&lt;/a&gt; &lt;a href=&quot;\nhttp://img6.imageshack.us/img6/4611/62517723.png&quot; rel=&quot;nofollow&quot; target=&quot;_NEW&quot;&gt;\nhttp://img6.imageshack.us/img6/4611/62517723.png&lt;/a&gt; &lt;a href=&quot;\nhttp://img20.imageshack.us/img20/403/90933519.png&quot; rel=&quot;nofollow&quot; target=&quot;_NEW&quot;&gt;\nhttp://img20.imageshack.us/img20/403/90933519.png&lt;/a&gt; &lt;a href=&quot;\nhttp://img35.imageshack.us/img35/4260/74014141.png&quot; rel=&quot;nofollow&quot; target=&quot;_NEW&quot;&gt;\nhttp://img35.imageshack.us/img35/4260/74014141.png&lt;/a&gt; &lt;a href=&quot;\nhttp://img94.imageshack.us/img94/2975/11484962.png&quot; rel=&quot;nofollow&quot; target=&quot;_NEW&quot;&gt;\nhttp://img94.imageshack.us/img94/2975/11484962.png&lt;/a&gt; &lt;a href=&quot;\nhttp://img593.imageshack.us/img593/3210/93455648m.png&quot; rel=&quot;nofollow&quot; target=&quot;_NEW&quot;&gt;\nhttp://img593.imageshack.us/img593/3210/93455648m.png&lt;/a&gt; &lt;a href=&quot;\nhttp://img690.imageshack.us/img690/448/99516300.png&quot; rel=&quot;nofollow&quot; target=&quot;_NEW&quot;&gt;\nhttp://img690.imageshack.us/img690/448/99516300.png&lt;/a&gt; &lt;a href=&quot;\nhttp://img706.imageshack.us/img706/1117/57230714.png&quot; rel=&quot;nofollow&quot; target=&quot;_NEW&quot;&gt;\nhttp://img706.imageshack.us/img706/1117/57230714.png&lt;/a&gt;","torrent":{"xt":"urn:btih:85f50f6caa47dfc97f5ff33d97e0d950a01a040a","amp;dn":"Paranorman%5B2012%5DBRrip%5BAc3-5.1%5D-%3D%5BCaLvIn%5D%3D-","amp;tr":["udp%3A%2F%2Ftracker.openbittorrent.com%3A80","udp%3A%2F%2Fopen.demonii.com%3A1337","udp%3A%2F%2Ftracker.coppersurfer.tk%3A6969","udp%3A%2F%2Fexodus.desync.com%3A6969"],"infoHash":"85f50f6caa47dfc97f5ff33d97e0d950a01a040a","infoHashBuffer":{"type":"Buffer","data":[133,245,15,108,170,71,223,201,127,95,243,61,151,224,217,80,160,26,4,10]},"announce":[],"urlList":[]}}